<svg xmlns="http://www.w3.org/2000/svg"  viewBox="0 0 100 100" width="100px" height="100px"><path fill="#c7ede6" d="M87.215,56.71C88.35,54.555,89,52.105,89,49.5c0-6.621-4.159-12.257-10.001-14.478 C78.999,35.015,79,35.008,79,35c0-11.598-9.402-21-21-21c-9.784,0-17.981,6.701-20.313,15.757C36.211,29.272,34.638,29,33,29 c-7.692,0-14.023,5.793-14.89,13.252C12.906,43.353,9,47.969,9,53.5C9,59.851,14.149,65,20.5,65c0.177,0,0.352-0.012,0.526-0.022 C21.022,65.153,21,65.324,21,65.5C21,76.822,30.178,86,41.5,86c6.437,0,12.175-2.972,15.934-7.614C59.612,80.611,62.64,82,66,82 c4.65,0,8.674-2.65,10.666-6.518C77.718,75.817,78.837,76,80,76c6.075,0,11-4.925,11-11C91,61.689,89.53,58.727,87.215,56.71z"/><path fill="#fff" d="M15.5 51h-10C5.224 51 5 50.776 5 50.5S5.224 50 5.5 50h10c.276 0 .5.224.5.5S15.777 51 15.5 51zM18.5 51h-1c-.276 0-.5-.224-.5-.5s.224-.5.5-.5h1c.276 0 .5.224.5.5S18.777 51 18.5 51zM23.491 53H14.5c-.276 0-.5-.224-.5-.5s.224-.5.5-.5h8.991c.276 0 .5.224.5.5S23.767 53 23.491 53zM12.5 53h-1c-.276 0-.5-.224-.5-.5s.224-.5.5-.5h1c.276 0 .5.224.5.5S12.777 53 12.5 53zM9.5 53h-2C7.224 53 7 52.776 7 52.5S7.224 52 7.5 52h2c.276 0 .5.224.5.5S9.777 53 9.5 53zM15.5 55h-2c-.276 0-.5-.224-.5-.5s.224-.5.5-.5h2c.276 0 .5.224.5.5S15.776 55 15.5 55zM18.5 46c-.177 0-.823 0-1 0-.276 0-.5.224-.5.5 0 .276.224.5.5.5.177 0 .823 0 1 0 .276 0 .5-.224.5-.5C19 46.224 18.776 46 18.5 46zM18.5 48c-.177 0-4.823 0-5 0-.276 0-.5.224-.5.5 0 .276.224.5.5.5.177 0 4.823 0 5 0 .276 0 .5-.224.5-.5C19 48.224 18.776 48 18.5 48zM23.5 50c-.177 0-2.823 0-3 0-.276 0-.5.224-.5.5 0 .276.224.5.5.5.177 0 2.823 0 3 0 .276 0 .5-.224.5-.5C24 50.224 23.776 50 23.5 50zM72.5 24h-10c-.276 0-.5-.224-.5-.5s.224-.5.5-.5h10c.276 0 .5.224.5.5S72.776 24 72.5 24zM76.5 24h-2c-.276 0-.5-.224-.5-.5s.224-.5.5-.5h2c.276 0 .5.224.5.5S76.776 24 76.5 24zM81.5 26h-10c-.276 0-.5-.224-.5-.5s.224-.5.5-.5h10c.276 0 .5.224.5.5S81.777 26 81.5 26zM69.5 26h-1c-.276 0-.5-.224-.5-.5s.224-.5.5-.5h1c.276 0 .5.224.5.5S69.776 26 69.5 26zM66.47 26H64.5c-.276 0-.5-.224-.5-.5s.224-.5.5-.5h1.97c.276 0 .5.224.5.5S66.746 26 66.47 26zM75.5 22h-5c-.276 0-.5-.224-.5-.5s.224-.5.5-.5h5c.276 0 .5.224.5.5S75.777 22 75.5 22zM72.5 28h-2c-.276 0-.5-.224-.5-.5s.224-.5.5-.5h2c.276 0 .5.224.5.5S72.776 28 72.5 28z"/><path fill="#508ecc" d="M31.725,24.017C39.793,24.397,46,31.347,46,39.424V47h-6v-7.692c0-4.794-3.617-8.979-8.401-9.289 C26.357,29.68,22,33.831,22,39c0,1.657-1.343,3-3,3s-3-1.343-3-3C16,30.475,23.111,23.611,31.725,24.017z"/><path fill="#472b29" d="M31,25.4c0.219,0,0.438,0.005,0.659,0.016C38.916,25.757,44.6,31.91,44.6,39.424V45.6h-3.2v-6.292 c0-5.64-4.265-10.333-9.711-10.686C31.458,28.607,31.228,28.6,31,28.6c-5.735,0-10.4,4.665-10.4,10.4c0,0.882-0.718,1.6-1.6,1.6 s-1.6-0.718-1.6-1.6C17.4,31.501,23.501,25.4,31,25.4 M31,24c-8.284,0-15,6.716-15,15c0,1.657,1.343,3,3,3s3-1.343,3-3 c0-4.971,4.029-9,9-9c0.198,0,0.398,0.006,0.599,0.019C36.383,30.329,40,34.515,40,39.308V47h6v-7.576 c0-8.077-6.207-15.027-14.275-15.407C31.482,24.006,31.241,24,31,24L31,24z"/><path fill="#7dafe2" d="M62,73H42c-5.523,0-10-4.477-10-10V49c0-2.209,1.791-4,4-4h32c2.209,0,4,1.791,4,4v14 C72,68.523,67.523,73,62,73z"/><path fill="#7dafe2" d="M62,73H42c-5.523,0-10-4.477-10-10V49c0-2.209,1.791-4,4-4h32c2.209,0,4,1.791,4,4v14 C72,68.523,67.523,73,62,73z"/><path fill="#f1bc19" d="M33 50H71V56.5H33z"/><path fill="#508ecc" d="M54,62c0-1.105-0.895-2-2-2s-2,0.895-2,2c0,0.653,0.318,1.227,0.801,1.592L50,68h4l-0.801-4.408 C53.682,63.227,54,62.653,54,62z"/><path fill="#472b29" d="M68,46.4c1.434,0,2.6,1.166,2.6,2.6v14c0,4.742-3.858,8.6-8.6,8.6H42c-4.742,0-8.6-3.858-8.6-8.6V49 c0-1.434,1.166-2.6,2.6-2.6H68 M68,45H36c-2.209,0-4,1.791-4,4v14c0,5.523,4.477,10,10,10h20c5.523,0,10-4.477,10-10V49 C72,46.791,70.209,45,68,45L68,45z"/><g><path fill="#472b29" d="M71,51h-3.5c-0.276,0-0.5-0.224-0.5-0.5s0.224-0.5,0.5-0.5H71c0.276,0,0.5,0.224,0.5,0.5 S71.276,51,71,51z"/></g><g><path fill="#472b29" d="M64.5,51h-2c-0.276,0-0.5-0.224-0.5-0.5s0.224-0.5,0.5-0.5h2c0.276,0,0.5,0.224,0.5,0.5 S64.776,51,64.5,51z"/></g><g><path fill="#472b29" d="M59.5,51H33c-0.276,0-0.5-0.224-0.5-0.5S32.724,50,33,50h26.5c0.276,0,0.5,0.224,0.5,0.5 S59.776,51,59.5,51z"/></g><g><path fill="#472b29" d="M71,57H33c-0.276,0-0.5-0.224-0.5-0.5S32.724,56,33,56h38c0.276,0,0.5,0.224,0.5,0.5 S71.276,57,71,57z"/></g><path fill="#472b29" d="M52,60.35c0.91,0,1.65,0.74,1.65,1.65c0,0.517-0.241,0.995-0.662,1.313 c-0.106,0.08-0.157,0.212-0.134,0.342l0.726,3.995h-3.161l0.726-3.995c0.024-0.13-0.028-0.262-0.134-0.342 C50.591,62.995,50.35,62.517,50.35,62C50.35,61.09,51.09,60.35,52,60.35 M52,60c-1.105,0-2,0.895-2,2 c0,0.653,0.318,1.227,0.801,1.592L50,68h4l-0.801-4.408C53.682,63.227,54,62.653,54,62C54,60.895,53.105,60,52,60L52,60z"/><g><path fill="#472b29" d="M50.23 53.325H57.559999999999995V53.676H50.23z" transform="rotate(-54.984 53.891 53.499)"/></g><g><path fill="#472b29" d="M31.44 53.325H38.77V53.676H31.44z" transform="rotate(-54.984 35.102 53.498)"/></g><g><path fill="#472b29" d="M35.23 53.325H42.559999999999995V53.676H35.23z" transform="rotate(-54.984 38.892 53.498)"/></g><g><path fill="#472b29" d="M38.94 53.325H46.269999999999996V53.676H38.94z" transform="rotate(-54.984 42.602 53.498)"/></g><g><path fill="#472b29" d="M42.73 53.325H50.059999999999995V53.676H42.73z" transform="rotate(-54.984 46.392 53.498)"/></g><g><path fill="#472b29" d="M46.44 53.325H53.769999999999996V53.676H46.44z" transform="rotate(-54.984 50.102 53.498)"/></g><g><path fill="#472b29" d="M53.94 53.325H61.269999999999996V53.676H53.94z" transform="rotate(-54.984 57.601 53.499)"/></g><g><path fill="#472b29" d="M57.73 53.325H65.06V53.676H57.73z" transform="rotate(-54.984 61.391 53.499)"/></g><g><path fill="#472b29" d="M61.44 53.325H68.77V53.676H61.44z" transform="rotate(-54.984 65.1 53.499)"/></g><g><path fill="#472b29" d="M65.23 53.325H72.56V53.676H65.23z" transform="rotate(-54.984 68.89 53.499)"/></g><g><path fill="#fdfcef" d="M70.125,76.5c0,0-4.64,0-7.125,0s-4.5-2.015-4.5-4.5c0-2.333,1.782-4.229,4.055-4.455 C62.533,67.364,62.5,67.187,62.5,67c0-2.485,2.015-4.5,4.5-4.5c1.438,0,2.703,0.686,3.527,1.736C70.667,61.6,72.829,59.5,75.5,59.5 c2.761,0,5,2.239,5,5c0,0.446-0.077,0.87-0.187,1.282c0.642-0.777,1.6-1.282,2.687-1.282c1.781,0,3.234,1.335,3.455,3.055 C86.636,67.533,86.813,67.5,87,67.5c2.485,0,4.5,2.015,4.5,4.5s-2.015,4.5-4.5,4.5s-9.5,0-9.5,0H70.125z"/><path fill="#472b29" d="M75.5,59c3.033,0,5.5,2.467,5.5,5.5c0,0.016,0,0.031,0,0.047C81.602,64.192,82.29,64,83,64 c1.831,0,3.411,1.261,3.858,3.005C86.905,67.002,86.952,67,87,67c2.757,0,5,2.243,5,5c0,2.757-2.243,5-5,5H72.5 c-0.276,0-0.5-0.224-0.5-0.5c0-0.276,0.224-0.5,0.5-0.5H87c2.206,0,4-1.794,4-4c0-2.206-1.794-4-4-4 c-0.117,0-0.23,0.017-0.343,0.032l-0.141,0.019c-0.021,0.003-0.041,0.004-0.062,0.004c-0.246,0-0.462-0.185-0.495-0.437 C85.768,66.125,84.496,65,83,65c-0.885,0-1.723,0.401-2.301,1.1c-0.098,0.118-0.241,0.182-0.386,0.182 c-0.078,0-0.156-0.018-0.228-0.056c-0.209-0.107-0.314-0.346-0.254-0.573C79.946,65.218,80,64.852,80,64.5 c0-2.481-2.019-4.5-4.5-4.5c-2.381,0-4.347,1.872-4.474,4.263c-0.011,0.208-0.15,0.387-0.349,0.45 c-0.05,0.016-0.101,0.024-0.152,0.024c-0.15,0-0.296-0.069-0.392-0.192C69.362,63.563,68.221,63,67,63c-2.206,0-4,1.794-4,4 c0,0.117,0.017,0.23,0.032,0.343l0.019,0.141c0.016,0.134-0.022,0.268-0.106,0.373c-0.084,0.105-0.207,0.172-0.34,0.185 C60.549,68.247,59,69.949,59,72c0,2.206,1.794,4,4,4h6.5c0.276,0,0.5,0.224,0.5,0.5c0,0.276-0.224,0.5-0.5,0.5H63 c-2.757,0-5-2.243-5-5c0-2.397,1.689-4.413,4.003-4.877C62.001,67.082,62,67.041,62,67c0-2.757,2.243-5,5-5 c1.176,0,2.293,0.416,3.183,1.164C70.781,60.76,72.945,59,75.5,59L75.5,59z"/><path fill="#472b29" d="M77 66c1.403 0 2.609.999 2.913 2.341C80.28 68.119 80.699 68 81.125 68c1.202 0 2.198.897 2.353 2.068C83.681 70.022 83.874 70 84.062 70c1.529 0 2.811 1.2 2.918 2.732C86.99 72.87 86.886 72.99 86.749 73c-.006 0-.012 0-.018 0-.13 0-.24-.101-.249-.232-.089-1.271-1.151-2.268-2.419-2.268-.229 0-.47.042-.738.127-.022.007-.045.01-.067.01-.055 0-.11-.02-.156-.054C83.038 70.537 83 70.455 83 70.375c0-1.034-.841-1.875-1.875-1.875-.447 0-.885.168-1.231.473-.047.041-.106.063-.165.063-.032 0-.063-.006-.093-.019-.088-.035-.148-.117-.155-.212C79.377 67.512 78.288 66.5 77 66.5c-.208 0-.425.034-.682.107-.023.007-.047.01-.07.01-.109 0-.207-.073-.239-.182-.038-.133.039-.271.172-.309C76.483 66.04 76.744 66 77 66L77 66zM63.117 67.5c1.326 0 2.508.897 2.874 2.182.038.133-.039.271-.172.309C65.795 69.997 65.772 70 65.75 70c-.109 0-.209-.072-.24-.182C65.205 68.748 64.221 68 63.117 68c-.117 0-.23.014-.342.029-.012.002-.023.003-.035.003-.121 0-.229-.092-.246-.217-.019-.137.077-.263.214-.281C62.842 67.516 62.978 67.5 63.117 67.5L63.117 67.5z"/></g><g><path fill="#fdfcef" d="M32.5,67.5c0,0,1.567,0,3.5,0s3.5-1.567,3.5-3.5c0-1.781-1.335-3.234-3.055-3.455 C36.473,60.366,36.5,60.187,36.5,60c0-1.933-1.567-3.5-3.5-3.5c-1.032,0-1.95,0.455-2.59,1.165 c-0.384-1.808-1.987-3.165-3.91-3.165c-2.209,0-4,1.791-4,4c0,0.191,0.03,0.374,0.056,0.558C22.128,58.714,21.592,58.5,21,58.5 c-1.228,0-2.245,0.887-2.455,2.055C18.366,60.527,18.187,60.5,18,60.5c-1.933,0-3.5,1.567-3.5,3.5s1.567,3.5,3.5,3.5s7.5,0,7.5,0"/><path fill="#472b29" d="M34.25 63C34.112 63 34 62.888 34 62.75c0-1.223.995-2.218 2.218-2.218.034.009.737-.001 1.244.136.133.036.212.173.176.306-.036.134-.173.213-.306.176-.444-.12-1.1-.12-1.113-.118-.948 0-1.719.771-1.719 1.718C34.5 62.888 34.388 63 34.25 63zM27.5 67A.5.5 0 1 0 27.5 68 .5.5 0 1 0 27.5 67z"/><path fill="#472b29" d="M36,68h-3.5c-0.276,0-0.5-0.224-0.5-0.5s0.224-0.5,0.5-0.5H36c1.654,0,3-1.346,3-3 c0-1.496-1.125-2.768-2.618-2.959c-0.134-0.018-0.255-0.088-0.336-0.196s-0.115-0.244-0.094-0.377C35.975,60.314,36,60.16,36,60 c0-1.654-1.346-3-3-3c-0.85,0-1.638,0.355-2.219,1c-0.125,0.139-0.321,0.198-0.5,0.148c-0.182-0.049-0.321-0.195-0.36-0.379 C29.58,56.165,28.141,55,26.5,55c-1.93,0-3.5,1.57-3.5,3.5c0,0.143,0.021,0.28,0.041,0.418c0.029,0.203-0.063,0.438-0.242,0.54 c-0.179,0.102-0.396,0.118-0.556-0.01C21.878,59.155,21.449,59,21,59c-0.966,0-1.792,0.691-1.963,1.644 c-0.048,0.267-0.296,0.446-0.569,0.405C18.314,61.025,18.16,61,18,61c-1.654,0-3,1.346-3,3s1.346,3,3,3h7.5 c0.276,0,0.5,0.224,0.5,0.5S25.776,68,25.5,68H18c-2.206,0-4-1.794-4-4s1.794-4,4-4c0.059,0,0.116,0.002,0.174,0.006 C18.588,58.82,19.711,58,21,58c0.349,0,0.689,0.061,1.011,0.18C22.176,55.847,24.126,54,26.5,54c1.831,0,3.466,1.127,4.153,2.774 C31.334,56.276,32.155,56,33,56c2.206,0,4,1.794,4,4c0,0.048-0.001,0.095-0.004,0.142C38.739,60.59,40,62.169,40,64 C40,66.206,38.206,68,36,68z"/><path fill="#472b29" d="M30.5,67c-0.159,0-0.841,0-1,0c-0.276,0-0.5,0.224-0.5,0.5c0,0.276,0.224,0.5,0.5,0.5 c0.159,0,0.841,0,1,0c0.276,0,0.5-0.224,0.5-0.5C31,67.224,30.776,67,30.5,67z"/></g></svg>